<?xml version="1.0" standalone="no"?>
<!DOCTYPE svg PUBLIC "-//W3C//DTD SVG 20010904//EN"
 "http://www.w3.org/TR/2001/REC-SVG-20010904/DTD/svg10.dtd">
<svg version="1.0" xmlns="http://www.w3.org/2000/svg"
 width="2000.000000pt" height="2000.000000pt" viewBox="0 0 2000.000000 2000.000000"
 preserveAspectRatio="xMidYMid meet">
<metadata>
Created by potrace 1.11, written by Peter Selinger 2001-2013
</metadata>
<g transform="translate(0.000000,2000.000000) scale(0.100000,-0.100000)"
fill="#000000" stroke="none">
<path d="M12977 15054 c-1 -1 -15 -4 -32 -7 -16 -3 -57 -10 -90 -16 -33 -6
-76 -13 -95 -16 -19 -3 -73 -13 -120 -21 -47 -9 -94 -18 -105 -20 -11 -1 -63
-10 -115 -19 -52 -9 -126 -22 -165 -30 -38 -8 -86 -16 -105 -19 -19 -3 -46 -8
-60 -10 -158 -29 -482 -86 -505 -90 -16 -2 -84 -14 -150 -26 -66 -11 -133 -23
-150 -26 -16 -2 -52 -9 -80 -14 -27 -5 -63 -12 -80 -14 -54 -9 -319 -56 -345
-61 -14 -3 -41 -7 -60 -10 -19 -3 -46 -7 -60 -10 -14 -3 -38 -8 -55 -10 -27
-5 -202 -36 -280 -50 -64 -12 -142 -25 -180 -31 -22 -3 -85 -14 -140 -24 -55
-10 -113 -21 -130 -24 -65 -10 -331 -56 -355 -61 -37 -8 -317 -58 -399 -71
-18 -3 -43 -8 -55 -10 -11 -2 -34 -7 -51 -9 -16 -3 -66 -12 -110 -20 -44 -8
-96 -17 -115 -20 -19 -3 -59 -10 -89 -16 -30 -6 -64 -12 -75 -14 -12 -1 -37
-6 -56 -9 -19 -4 -71 -13 -115 -21 -44 -8 -98 -17 -120 -20 -22 -4 -47 -8 -55
-10 -8 -2 -31 -7 -50 -10 -19 -3 -96 -17 -170 -30 -74 -13 -151 -27 -170 -30
-19 -3 -109 -19 -200 -36 -91 -16 -219 -39 -285 -50 -66 -12 -129 -23 -140
-26 -11 -2 -33 -6 -48 -8 -115 -17 -211 -40 -230 -55 l-22 -18 0 -1027 0
-1027 35 7 c19 3 51 8 70 11 19 2 46 6 60 9 14 3 36 7 50 10 14 2 77 13 140
24 63 12 133 23 155 26 22 4 47 8 56 11 9 2 32 7 50 9 19 3 45 7 59 10 14 3
50 9 80 15 30 5 64 11 75 13 11 3 40 8 65 12 25 4 54 9 65 11 27 5 68 13 108
19 17 3 68 12 112 20 44 8 96 17 115 20 19 3 42 8 50 10 8 2 32 6 53 9 21 4
125 22 230 41 106 19 208 37 227 40 19 3 98 17 175 31 77 14 151 27 165 29 35
6 472 83 565 100 17 3 48 8 70 11 22 3 72 12 110 20 39 7 88 16 110 19 22 4
47 8 55 10 8 2 35 7 60 10 25 4 77 12 115 20 39 8 88 17 110 20 22 4 63 11 90
16 28 5 64 11 80 14 17 3 37 7 45 9 8 1 38 6 65 10 58 9 72 11 145 25 30 6 71
13 90 16 19 3 46 8 60 10 56 12 76 15 100 20 69 12 379 66 403 70 15 3 39 7
55 10 15 3 54 9 87 15 33 5 71 12 85 15 30 6 52 10 200 36 63 11 203 35 310
54 107 19 209 37 225 40 17 3 77 14 135 25 58 10 121 21 140 24 19 3 71 12
115 20 108 20 134 25 175 32 57 10 70 21 71 62 4 297 0 2014 -5 2019 -6 7 -44
12 -49 7z"/>
<path d="M12949 11776 c-2 -2 -22 -7 -44 -10 -22 -4 -89 -16 -150 -27 -60 -11
-126 -22 -145 -25 -19 -3 -69 -11 -110 -19 -41 -8 -93 -17 -115 -21 -22 -3
-85 -14 -140 -24 -55 -10 -143 -26 -195 -34 -52 -9 -104 -18 -115 -20 -11 -2
-87 -16 -170 -30 -265 -46 -313 -55 -341 -60 -12 -2 -39 -7 -60 -10 -22 -3
-50 -8 -64 -11 -34 -7 -58 -11 -110 -20 -25 -4 -52 -9 -60 -10 -8 -2 -53 -10
-100 -19 -98 -18 -130 -23 -185 -31 -22 -4 -47 -8 -55 -10 -8 -2 -31 -7 -50
-10 -19 -3 -46 -7 -60 -10 -14 -3 -41 -7 -60 -10 -19 -3 -42 -8 -50 -10 -8 -2
-35 -7 -60 -11 -25 -3 -49 -7 -55 -8 -5 -2 -30 -6 -55 -10 -25 -4 -52 -9 -60
-10 -60 -11 -105 -19 -175 -32 -211 -38 -182 -33 -315 -55 -36 -5 -83 -14
-105 -19 -22 -5 -60 -11 -85 -15 -25 -3 -52 -8 -60 -10 -8 -2 -31 -7 -50 -10
-38 -6 -134 -23 -165 -29 -11 -2 -63 -11 -115 -20 -115 -20 -142 -24 -177 -31
-43 -9 -194 -35 -228 -41 -16 -2 -52 -9 -80 -14 -27 -5 -63 -12 -80 -15 -16
-3 -41 -7 -55 -9 -14 -3 -117 -21 -230 -41 -113 -20 -218 -39 -235 -42 -16 -4
-37 -7 -45 -8 -8 -2 -69 -12 -135 -24 -66 -11 -133 -23 -150 -26 -16 -3 -41
-8 -55 -10 -47 -10 -68 -13 -106 -19 -22 -4 -75 -13 -119 -21 -182 -34 -463
-84 -509 -90 -57 -7 -82 -19 -94 -43 -6 -13 -9 -1924 -3 -2041 1 -28 3 -27
206 8 33 6 71 14 85 17 14 3 34 6 45 8 27 4 105 17 130 22 25 5 398 71 445 79
19 3 42 8 50 10 8 2 35 7 60 10 25 3 53 8 63 11 11 4 29 7 40 9 12 1 78 12
147 24 69 12 139 24 155 27 17 2 44 7 60 11 17 3 39 7 50 9 21 3 236 41 271
48 12 2 37 7 55 10 19 3 43 7 54 10 11 2 40 7 65 11 25 4 54 9 65 11 11 2 47
9 80 14 33 5 70 12 81 14 12 2 39 7 60 10 22 4 100 18 174 31 74 13 155 27
180 30 24 4 47 8 50 10 3 2 23 6 45 9 22 4 78 14 125 22 47 9 94 18 105 19 54
9 299 53 330 59 18 3 60 10 135 22 14 3 63 12 110 20 99 19 97 18 220 40 52 9
109 18 125 21 17 2 91 15 165 29 74 13 173 31 220 39 47 8 135 24 195 35 61
11 126 22 145 25 19 3 94 16 165 30 72 13 148 26 170 30 22 3 47 7 55 10 8 2
31 6 50 9 37 4 136 22 230 41 14 2 39 7 55 9 40 7 314 55 341 60 12 3 39 7 60
10 161 26 321 60 333 71 11 11 13 182 13 1033 0 562 -3 1025 -7 1031 -6 10
-67 16 -76 7z"/>
<path d="M12925 8499 c-22 -4 -60 -10 -85 -14 -25 -3 -52 -7 -60 -10 -8 -2
-28 -7 -45 -9 -98 -16 -212 -37 -225 -41 -8 -2 -33 -6 -55 -10 -39 -5 -89 -14
-130 -21 -11 -3 -108 -20 -215 -39 -107 -19 -235 -41 -285 -50 -49 -9 -99 -18
-110 -19 -20 -4 -83 -16 -120 -22 -11 -2 -85 -15 -165 -29 -196 -34 -201 -35
-230 -40 -14 -3 -38 -8 -55 -11 -16 -3 -41 -7 -55 -9 -14 -3 -63 -12 -110 -20
-47 -8 -96 -17 -110 -20 -14 -2 -79 -14 -145 -25 -66 -11 -181 -32 -255 -45
-74 -13 -216 -38 -315 -55 -99 -17 -191 -33 -205 -35 -14 -3 -36 -7 -50 -10
-14 -3 -41 -8 -60 -11 -19 -3 -69 -11 -110 -19 -41 -8 -91 -17 -110 -20 -34
-6 -333 -58 -395 -69 -16 -3 -41 -8 -55 -10 -49 -9 -215 -38 -235 -42 -11 -1
-45 -7 -75 -13 -30 -6 -71 -13 -90 -16 -19 -3 -69 -12 -110 -20 -41 -8 -91
-17 -110 -19 -19 -3 -46 -8 -60 -10 -32 -6 -209 -37 -235 -42 -20 -3 -237 -41
-285 -49 -45 -8 -364 -65 -395 -70 -16 -3 -55 -10 -85 -15 -30 -6 -68 -13 -85
-15 -16 -3 -77 -14 -135 -25 -58 -11 -121 -22 -140 -25 -19 -3 -48 -8 -65 -11
-56 -9 -93 -25 -97 -42 -6 -27 -3 -2040 3 -2047 20 -19 58 -14 384 46 60 11
123 22 140 24 16 2 41 6 55 9 14 3 68 13 120 22 99 17 119 20 160 29 14 2 39
7 55 10 17 2 55 9 85 15 30 6 73 13 95 16 22 2 47 7 55 9 15 4 27 7 165 30 44
8 121 21 170 30 91 16 115 20 170 30 80 14 271 48 365 65 58 11 146 26 195 35
50 8 104 17 120 20 17 3 53 10 80 15 28 5 66 12 85 15 19 3 58 10 85 15 28 5
67 12 89 16 21 3 48 8 60 10 11 2 37 7 56 10 19 4 44 9 55 11 11 2 29 6 40 7
11 2 76 13 145 25 69 12 139 24 155 27 17 2 64 11 105 19 77 15 239 44 275 49
28 4 106 18 130 22 26 5 68 13 103 19 98 16 330 56 342 60 8 2 33 6 55 10 22
3 76 12 120 20 44 8 94 17 110 20 17 3 41 7 55 10 23 4 203 35 290 50 19 3 85
15 145 26 61 12 121 22 135 24 14 2 102 17 195 34 94 16 186 33 205 36 19 3
136 24 260 46 124 21 239 42 255 44 72 13 84 17 91 37 8 27 8 2043 0 2057 -8
12 -42 13 -101 0z"/>
</g>
</svg>
